<svg xmlns="http://www.w3.org/2000/svg" fill="none" overflow="visible" preserveAspectRatio="xMidYMid meet" style="display:block" viewBox="0 0 600 139"><path fill="var(--fill-0, #0026ff)" d="M307.838 115.993q0 4.21 1.314 6.665 1.401 2.367 4.028 3.332t6.218.964q4.729 0 8.144-2.016 3.416-2.105 5.518-5.087 1.52-2.072 2.365-4.016V91.524h11.385v43.587h-11.385v-14.999q-.083.297-.175.616-.702 2.28-2.19 4.911-1.401 2.631-3.678 5.087-2.277 2.368-5.605 3.946-3.328 1.49-7.882 1.49-3.59 0-7.094-.876a18.4 18.4 0 0 1-6.218-2.894q-2.802-2.105-4.466-5.613t-1.664-8.858V91.524h11.385zm102.199 0q0 4.21 1.313 6.665 1.401 2.367 4.028 3.332 2.629.964 6.219.964 4.73 0 8.145-2.016 3.416-2.105 5.517-5.087 1.52-2.072 2.365-4.016V91.524h11.384v43.587h-11.384v-14.997q-.084.297-.175.614-.7 2.28-2.19 4.911-1.402 2.631-3.678 5.087-2.277 2.368-5.605 3.946-3.328 1.49-7.883 1.49a29 29 0 0 1-7.093-.876 18.4 18.4 0 0 1-6.218-2.894q-2.803-2.105-4.466-5.613t-1.664-8.858V91.524h11.385zm113.827-25.434q8.582 0 14.275 2.719t8.407 8.244q2.803 5.438 2.365 13.944h-41.512a12.8 12.8 0 0 0 2.452 6.051q2.102 2.718 5.606 4.298 3.59 1.578 8.495 1.578 5.43 0 9.02-1.842 3.678-1.929 4.729-4.911h11.035q-.701 4.473-3.766 7.98-2.978 3.508-8.144 5.526-5.168 2.017-12.612 2.016-8.32 0-14.713-2.63-6.393-2.719-9.984-7.805t-3.591-12.278 3.504-12.278q3.504-5.173 9.721-7.893 6.305-2.718 14.713-2.719m55.151 0q6.48 0 10.772 1.93 4.29 1.84 6.393 5.261 2.19 3.333 2.19 7.718h-10.072q-.7-3.245-2.802-4.648-2.102-1.49-6.481-1.49-4.291 0-6.481 1.315-2.19 1.316-2.19 3.596 0 1.841 1.315 2.893 1.401.965 4.028 1.579 2.715.614 6.743 1.316 3.415.7 6.481 1.578 3.152.877 5.605 2.28 2.453 1.316 3.854 3.596 1.488 2.192 1.488 5.613 0 4.209-2.452 7.104-2.366 2.894-6.831 4.472-4.467 1.49-10.685 1.49-5.517 0-9.546-1.139-3.941-1.228-6.568-3.07-2.628-1.93-4.116-4.034-1.402-2.192-1.927-4.122-.524-1.93-.35-3.157h10.509q.963 2.982 3.941 4.911 3.066 1.842 7.97 1.842 3.327 0 5.167-.614t2.54-1.754q.7-1.228.7-2.719 0-1.841-1.138-2.806-1.139-1.052-3.503-1.667-2.365-.613-6.043-1.139a85 85 0 0 1-7.094-1.491q-3.415-.877-6.043-2.281-2.627-1.49-4.204-3.682-1.488-2.28-1.488-5.526 0-3.156 1.488-5.612 1.577-2.456 4.292-4.122 2.803-1.666 6.481-2.544 3.765-.877 8.057-.877m-288.971-2.455h-43.613v15.26h35.732v9.12h-35.732v22.627h-11.648V78.37h55.261zm88.413 3.42h11.21v8.857h-11.21v34.73h-11.385v-34.73h-11.21v-8.857h11.21V79.597h11.385zm110.782 9.384q-4.905 0-8.495 1.929-3.591 1.842-5.781 4.561-1.558 1.937-2.452 3.785v23.928h-11.385V91.524h11.385v13.243q.613-2.105 1.839-4.473 1.227-2.456 3.241-4.648 2.015-2.28 4.905-3.684 2.89-1.403 6.743-1.403zm34.099-1.666q-6.304 0-10.246 2.806-3.941 2.72-5.08 6.753h29.602q-.438-4.385-4.204-6.929-3.678-2.63-10.072-2.63M164.152 18.39q8.582 0 14.274 2.719 5.693 2.718 8.408 8.243 2.803 5.438 2.365 13.944h-41.512a12.8 12.8 0 0 0 2.452 6.052q2.102 2.718 5.605 4.297 3.59 1.578 8.495 1.578 5.43 0 9.02-1.842 3.678-1.93 4.73-4.91h11.035q-.7 4.471-3.767 7.98-2.978 3.508-8.144 5.525-5.168 2.018-12.612 2.018-8.319 0-14.712-2.631-6.393-2.72-9.984-7.806-3.591-5.085-3.591-12.277t3.503-12.279q3.504-5.175 9.722-7.892 6.306-2.72 14.713-2.719m264.648 0q8.583 0 14.276 2.719t8.407 8.243q2.802 5.438 2.364 13.944h-41.512a12.8 12.8 0 0 0 2.453 6.052q2.102 2.718 5.605 4.297 3.591 1.578 8.495 1.578 5.43 0 9.021-1.842 3.678-1.93 4.728-4.91h11.035q-.7 4.471-3.765 7.98-2.978 3.509-8.146 5.525-5.167 2.018-12.61 2.018-8.32 0-14.714-2.631-6.393-2.72-9.983-7.806-3.591-5.085-3.591-12.277t3.503-12.279q3.503-5.175 9.721-7.892 6.306-2.72 14.713-2.719m-108.194 0q7.531 0 12.085 3.07 4.642 2.98 6.744 8.156.555 1.368.963 2.822V19.356h11.386v43.586h-10.598l-.263-1.666q-.175-1.755-.349-4.385a78 78 0 0 1-.176-5.175V48.79q-.043.149-.087.296-1.226 3.946-3.767 7.368-2.54 3.33-6.655 5.436-4.116 2.018-9.896 2.018-6.481 0-11.824-2.807-5.254-2.895-8.407-7.98-3.065-5.174-3.065-11.927 0-6.928 3.153-12.015t8.494-7.893q5.43-2.895 12.262-2.894M66.873 62.941H54.174l-5.633-12.364H18.955l-5.592 12.365H.75L27.375 6.2h12.612zm20.761 0H76.25V1.817h11.385zm31.086-43.585h11.21v8.857h-11.21v34.729h-11.385V28.213h-11.21v-8.857h11.21V7.428h11.385zm108.815 9.384q-4.905 0-8.495 1.928-3.591 1.842-5.781 4.56-1.559 1.938-2.452 3.786v23.928h-11.385V19.356h11.385v13.242q.613-2.104 1.839-4.473 1.226-2.455 3.24-4.648 2.015-2.28 4.906-3.683t6.743-1.403zM267.94 18.39q4.029 0 7.444 1.052t5.955 3.245q2.541 2.193 3.942 5.613 1.4 3.333 1.4 7.98v26.66h-11.385V38.299q0-5.352-2.547-7.906l-.334-.324q-2.65-2.469-8.503-2.469-4.555 0-8.233 1.754t-5.955 4.473q-1.342 1.551-2.015 3.196v25.92h-11.384V19.356h11.384V31.92q.508-1.526 1.314-3.007 1.577-2.894 4.204-5.261 2.715-2.455 6.394-3.859 3.678-1.403 8.319-1.403m115.429.965h11.21v8.857h-11.21v34.729h-11.386V28.213h-11.21v-8.857h11.21V7.428h11.386zm-59.699 7.892q-7.268 0-11.296 3.859-4.03 3.771-4.03 10.086 0 4.209 1.927 7.366 1.927 3.07 5.343 4.823 3.503 1.755 8.056 1.755 5.167 0 8.934-1.755 3.765-1.755 5.78-4.91 2.014-3.158 2.014-7.28 0-4.471-2.102-7.541-2.013-3.157-5.78-4.737-3.678-1.666-8.846-1.666M23.356 40.842h20.749L33.691 17.986zm140.27-13.77q-6.305 0-10.247 2.807-3.94 2.72-5.079 6.753h29.601q-.438-4.385-4.203-6.928-3.678-2.631-10.072-2.631m264.649 0q-6.306 0-10.247 2.807-3.94 2.72-5.079 6.753h29.601q-.438-4.385-4.204-6.928-3.678-2.631-10.071-2.631"/></svg>
